<?xml version="1.0" encoding="UTF-8" standalone="no"?>
<!-- Created with Inkscape (http://www.inkscape.org/) -->

<svg
   xmlns:dc="http://purl.org/dc/elements/1.1/"
   xmlns:cc="http://creativecommons.org/ns#"
   xmlns:rdf="http://www.w3.org/1999/02/22-rdf-syntax-ns#"
   xmlns:svg="http://www.w3.org/2000/svg"
   xmlns="http://www.w3.org/2000/svg"
   xmlns:sodipodi="http://sodipodi.sourceforge.net/DTD/sodipodi-0.dtd"
   xmlns:inkscape="http://www.inkscape.org/namespaces/inkscape"
   width="74.448524mm"
   height="99.989502mm"
   viewBox="0 0 74.448524 99.989502"
   version="1.1"
   id="svg8"
   inkscape:version="0.92.3 (2405546, 2018-03-11)"
   sodipodi:docname="bumblebuyIcon.svg"
   style="enable-background:new">
  <defs
     id="defs2">
    <clipPath
       clipPathUnits="userSpaceOnUse"
       id="clipPath4589">
      <g
         id="use4591"
         inkscape:label="Clip">
        <circle
           style="fill:#000000;fill-opacity:1;stroke-width:0.26458332"
           id="circle4682"
           cx="90.871643"
           cy="133.96559"
           r="28.865108" />
        <a
           id="a4686">
          <circle
             r="28.597837"
             cy="133.69832"
             cx="79.913582"
             id="circle4684"
             style="fill:#ffffff;fill-opacity:1;stroke-width:0.26458332" />
        </a>
      </g>
    </clipPath>
    <clipPath
       clipPathUnits="userSpaceOnUse"
       id="clipPath4589-3">
      <g
         id="use4591-0"
         inkscape:label="Clip">
        <circle
           style="fill:#000000;fill-opacity:1;stroke-width:0.26458332"
           id="circle4674"
           cx="90.871643"
           cy="133.96559"
           r="28.865108" />
        <a
           id="a4678">
          <circle
             r="28.597837"
             cy="133.69832"
             cx="79.913582"
             id="circle4676"
             style="fill:#ffffff;fill-opacity:1;stroke-width:0.26458332" />
        </a>
      </g>
    </clipPath>
    <clipPath
       clipPathUnits="userSpaceOnUse"
       id="clipPath4589-3-5">
      <g
         id="use4591-0-3"
         inkscape:label="Clip">
        <circle
           style="fill:#000000;fill-opacity:1;stroke-width:0.26458332"
           id="circle4666"
           cx="90.871643"
           cy="133.96559"
           r="28.865108" />
        <a
           id="a4670">
          <circle
             r="28.597837"
             cy="133.69832"
             cx="79.913582"
             id="circle4668"
             style="fill:#ffffff;fill-opacity:1;stroke-width:0.26458332" />
        </a>
      </g>
    </clipPath>
    <filter
       inkscape:collect="always"
       style="color-interpolation-filters:sRGB"
       id="filter4758">
      <feBlend
         inkscape:collect="always"
         mode="exclusion"
         in2="BackgroundImage"
         id="feBlend4760" />
    </filter>
  </defs>
  <sodipodi:namedview
     id="base"
     pagecolor="#ffffff"
     bordercolor="#666666"
     borderopacity="1.0"
     inkscape:pageopacity="0.0"
     inkscape:pageshadow="2"
     inkscape:zoom="0.98994949"
     inkscape:cx="77.96283"
     inkscape:cy="68.11635"
     inkscape:document-units="mm"
     inkscape:current-layer="layer1"
     showgrid="false"
     inkscape:measure-start="0,0"
     inkscape:measure-end="0,0"
     inkscape:window-width="3840"
     inkscape:window-height="2115"
     inkscape:window-x="-13"
     inkscape:window-y="-13"
     inkscape:window-maximized="1" />
  <metadata
     id="metadata5">
    <rdf:RDF>
      <cc:Work
         rdf:about="">
        <dc:format>image/svg+xml</dc:format>
        <dc:type
           rdf:resource="http://purl.org/dc/dcmitype/StillImage" />
        <dc:title></dc:title>
      </cc:Work>
    </rdf:RDF>
  </metadata>
  <g
     inkscape:label="Layer 1"
     inkscape:groupmode="layer"
     id="layer1"
     transform="translate(-100.49336,-62.306628)">
    <path
       style="fill:#000000;fill-opacity:1;stroke-width:0.26458332"
       d="m 137.90763,161.62279 a 29.132376,29.132376 0 0 0 6.15053,0.67334 29.132376,29.132376 0 0 0 29.13259,-29.13259 29.132376,29.132376 0 0 0 -29.13259,-29.13207 29.132376,29.132376 0 0 0 -4.80642,0.40617 29.132379,29.132379 0 0 1 2.45773,0.62787 29.132379,29.132379 0 0 1 2.73523,0.99839 29.132379,29.132379 0 0 1 2.62258,1.26659 29.132379,29.132379 0 0 1 2.48253,1.52187 29.132379,29.132379 0 0 1 2.31821,1.76269 29.132379,29.132379 0 0 1 2.13062,1.98489 29.132379,29.132379 0 0 1 1.92185,2.18746 29.132379,29.132379 0 0 1 1.69395,2.36885 29.132379,29.132379 0 0 1 1.449,2.52594 29.132379,29.132379 0 0 1 1.18908,2.65772 29.132379,29.132379 0 0 1 0.91829,2.76366 29.132379,29.132379 0 0 1 0.63769,2.84117 29.132379,29.132379 0 0 1 0.35088,2.89078 29.132379,29.132379 0 0 1 0.0734,2.06085 29.132379,29.132379 0 0 1 -0.14573,2.90835 29.132379,29.132379 0 0 1 -0.43511,2.87941 29.132379,29.132379 0 0 1 -0.72037,2.82154 29.132379,29.132379 0 0 1 -0.99839,2.73575 29.132379,29.132379 0 0 1 -1.26711,2.62206 29.132379,29.132379 0 0 1 -1.52187,2.48253 29.132379,29.132379 0 0 1 -1.76216,2.31821 29.132379,29.132379 0 0 1 -1.98489,2.13062 29.132379,29.132379 0 0 1 -2.18798,1.92184 29.132379,29.132379 0 0 1 -2.36885,1.69396 29.132379,29.132379 0 0 1 -2.52595,1.44901 29.132379,29.132379 0 0 1 -2.65772,1.18959 29.132379,29.132379 0 0 1 -2.76365,0.91777 29.132379,29.132379 0 0 1 -2.84117,0.6382 29.132379,29.132379 0 0 1 -0.14418,0.0176 z"
       id="path4778"
       inkscape:connector-curvature="0" />
    <path
       style="fill:#000000;fill-opacity:1;stroke-width:0.2384094"
       d="m 124.54583,158.74458 a 26.04289,26.459678 0 0 0 5.49827,0.61157 26.04289,26.459678 0 0 0 26.04308,-26.45987 26.04289,26.459678 0 0 0 -26.04308,-26.4594 26.04289,26.459678 0 0 0 -4.2967,0.36891 26.042892,26.459679 0 0 1 2.19709,0.57026 26.042892,26.459679 0 0 1 2.44516,0.90679 26.042892,26.459679 0 0 1 2.34445,1.1504 26.042892,26.459679 0 0 1 2.21926,1.38224 26.042892,26.459679 0 0 1 2.07236,1.60098 26.042892,26.459679 0 0 1 1.90467,1.80279 26.042892,26.459679 0 0 1 1.71804,1.98677 26.042892,26.459679 0 0 1 1.51431,2.15152 26.042892,26.459679 0 0 1 1.29533,2.29421 26.042892,26.459679 0 0 1 1.06298,2.41389 26.042892,26.459679 0 0 1 0.82091,2.51011 26.042892,26.459679 0 0 1 0.57006,2.58051 26.042892,26.459679 0 0 1 0.31367,2.62558 26.042892,26.459679 0 0 1 0.0656,1.87177 26.042892,26.459679 0 0 1 -0.13027,2.64153 26.042892,26.459679 0 0 1 -0.38897,2.61525 26.042892,26.459679 0 0 1 -0.64397,2.56268 26.042892,26.459679 0 0 1 -0.89251,2.48477 26.042892,26.459679 0 0 1 -1.13274,2.3815 26.042892,26.459679 0 0 1 -1.36047,2.25477 26.042892,26.459679 0 0 1 -1.57528,2.10553 26.042892,26.459679 0 0 1 -1.7744,1.93515 26.042892,26.459679 0 0 1 -1.95594,1.74553 26.042892,26.459679 0 0 1 -2.11764,1.53855 26.042892,26.459679 0 0 1 -2.25807,1.31607 26.042892,26.459679 0 0 1 -2.37587,1.08045 26.042892,26.459679 0 0 1 -2.47056,0.83357 26.042892,26.459679 0 0 1 -2.53987,0.57965 26.042892,26.459679 0 0 1 -0.12889,0.016 z"
       id="path4778-3"
       inkscape:connector-curvature="0" />
    <path
       style="fill:#000000;fill-opacity:1;stroke-width:0.20469488"
       d="m 110.03009,154.55475 a 22.36005,22.717898 0 0 0 4.72074,0.52509 22.36005,22.717898 0 0 0 22.36021,-22.71806 22.36005,22.717898 0 0 0 -22.36021,-22.71766 22.36005,22.717898 0 0 0 -3.68909,0.31674 22.360052,22.7179 0 0 1 1.88639,0.48961 22.360052,22.7179 0 0 1 2.09938,0.77856 22.360052,22.7179 0 0 1 2.01291,0.98772 22.360052,22.7179 0 0 1 1.90543,1.18677 22.360052,22.7179 0 0 1 1.77929,1.37458 22.360052,22.7179 0 0 1 1.63533,1.54785 22.360052,22.7179 0 0 1 1.47508,1.70581 22.360052,22.7179 0 0 1 1.30017,1.84726 22.360052,22.7179 0 0 1 1.11215,1.96978 22.360052,22.7179 0 0 1 0.91266,2.07253 22.360052,22.7179 0 0 1 0.70482,2.15514 22.360052,22.7179 0 0 1 0.48944,2.21559 22.360052,22.7179 0 0 1 0.26932,2.25429 22.360052,22.7179 0 0 1 0.0563,1.60707 22.360052,22.7179 0 0 1 -0.11185,2.26798 22.360052,22.7179 0 0 1 -0.33396,2.24542 22.360052,22.7179 0 0 1 -0.55291,2.20028 22.360052,22.7179 0 0 1 -0.76629,2.13339 22.360052,22.7179 0 0 1 -0.97256,2.04472 22.360052,22.7179 0 0 1 -1.16808,1.93591 22.360052,22.7179 0 0 1 -1.35251,1.80778 22.360052,22.7179 0 0 1 -1.52347,1.66149 22.360052,22.7179 0 0 1 -1.67934,1.49869 22.360052,22.7179 0 0 1 -1.81818,1.32098 22.360052,22.7179 0 0 1 -1.93875,1.12995 22.360052,22.7179 0 0 1 -2.03988,0.92766 22.360052,22.7179 0 0 1 -2.12119,0.71569 22.360052,22.7179 0 0 1 -2.1807,0.49768 22.360052,22.7179 0 0 1 -0.11066,0.0137 z"
       id="path4778-3-0"
       inkscape:connector-curvature="0" />
    <circle
       style="fill:#000000;fill-opacity:1;stroke-width:0.12402342"
       id="path4814"
       cx="104.5024"
       cy="122.47301"
       r="4.0090427" />
    <circle
       style="fill:#000000;fill-opacity:1;stroke-width:0.1488281"
       id="path4814-8"
       cx="114.9259"
       cy="125.9475"
       r="4.8108511" />
    <path
       style="fill:#000000;fill-opacity:1;stroke-width:0.23472467"
       d="m 114.35032,106.79417 a 17.783492,37.560159 58.782382 0 1 4.70273,-5.22245 17.783492,37.560159 58.782382 0 1 47.20605,-19.152993 17.783492,37.560159 58.782382 0 1 -2.26436,29.218253 17.783492,37.560159 58.782382 0 1 -4.39418,3.92009 17.783494,37.560162 58.782383 0 0 1.60244,-2.14886 17.783494,37.560162 58.782383 0 0 1.55226,-2.44323 17.783494,37.560162 58.782383 0 0 1.24971,-2.39605 17.783494,37.560162 58.782383 0 0 0.93394,-2.32389 17.783494,37.560162 58.782383 0 0 0.6086,-2.22908 17.783494,37.560162 58.782383 0 0 0.27797,-2.11171 17.783494,37.560162 58.782383 0 0 -0.0555,-1.973392 17.783494,37.560162 58.782383 0 0 -0.3889,-1.815543 17.783494,37.560162 58.782383 0 0 -0.7181,-1.639303 17.783494,37.560162 58.782383 0 0 -1.04039,-1.446289 17.783494,37.560162 58.782383 0 0 -1.35204,-1.239789 17.783494,37.560162 58.782383 0 0 -1.65007,-1.020214 17.783494,37.560162 58.782383 0 0 -1.93186,-0.79069 17.783494,37.560162 58.782383 0 0 -1.52729,-0.416921 17.783494,37.560162 58.782383 0 0 -2.36705,-0.381439 17.783494,37.560162 58.782383 0 0 -2.59044,-0.136192 17.783494,37.560162 58.782383 0 0 -2.78798,0.110618 17.783494,37.560162 58.782383 0 0 -2.95787,0.356253 17.783494,37.560162 58.782383 0 0 -3.09833,0.598991 17.783494,37.560162 58.782383 0 0 -3.207,0.834582 17.783494,37.560162 58.782383 0 0 -3.28429,1.062459 17.783494,37.560162 58.782383 0 0 -3.32869,1.279777 17.783494,37.560162 58.782383 0 0 -3.3401,1.484443 17.783494,37.560162 58.782383 0 0 -3.31788,1.673986 17.783494,37.560162 58.782383 0 0 -3.26235,1.846703 17.783494,37.560162 58.782383 0 0 -3.17409,2.00092 17.783494,37.560162 58.782383 0 0 -3.05439,2.13581 17.783494,37.560162 58.782383 0 0 -2.90456,2.24848 17.783494,37.560162 58.782383 0 0 -0.136,0.11665 z"
       id="path4778-3-1"
       inkscape:connector-curvature="0" />
    <path
       style="fill:#000000;fill-opacity:1;stroke-width:0.21935402"
       d="m 114.34979,106.79419 a 17.801683,32.768547 28.596027 0 1 0.46521,-5.86953 17.801683,32.768547 28.596027 0 1 26.24009,-37.355894 17.801683,32.768547 28.596027 0 1 17.08922,20.133087 17.801683,32.768547 28.596027 0 1 -1.05691,4.862438 17.801685,32.76855 28.596028 0 0 -0.0804,-2.239411 17.801685,32.76855 28.596028 0 0 -0.31292,-2.40365 17.801685,32.76855 28.596028 0 0 -0.53005,-2.213233 17.801685,32.76855 28.596028 0 0 -0.74186,-1.999612 17.801685,32.76855 28.596028 0 0 -0.94682,-1.766261 17.801685,32.76855 28.596028 0 0 -1.14148,-1.515498 17.801685,32.76855 28.596028 0 0 -1.32489,-1.249649 17.801685,32.76855 28.596028 0 0 -1.4956,-0.971183 17.801685,32.76855 28.596028 0 0 -1.65089,-0.683015 17.801685,32.76855 28.596028 0 0 -1.78967,-0.387638 17.801685,32.76855 28.596028 0 0 -1.91103,-0.08913 17.801685,32.76855 28.596028 0 0 -2.01274,0.210654 17.801685,32.76855 28.596028 0 0 -2.09466,0.508296 17.801685,32.76855 28.596028 0 0 -1.52103,0.536772 17.801685,32.76855 28.596028 0 0 -2.18575,1.003483 17.801685,32.76855 28.596028 0 0 -2.20964,1.280468 17.801685,32.76855 28.596028 0 0 -2.2114,1.544797 17.801685,32.76855 28.596028 0 0 -2.19128,1.793768 17.801685,32.76855 28.596028 0 0 -2.14893,2.025301 17.801685,32.76855 28.596028 0 0 -2.08517,2.235415 17.801685,32.76855 28.596028 0 0 -2.00071,2.423931 17.801685,32.76855 28.596028 0 0 -1.89618,2.588244 17.801685,32.76855 28.596028 0 0 -1.77285,2.726917 17.801685,32.76855 28.596028 0 0 -1.63175,2.838029 17.801685,32.76855 28.596028 0 0 -1.47427,2.920619 17.801685,32.76855 28.596028 0 0 -1.30204,2.973925 17.801685,32.76855 28.596028 0 0 -1.11657,2.99811 17.801685,32.76855 28.596028 0 0 -0.9208,2.99198 17.801685,32.76855 28.596028 0 0 -0.0357,0.14745 z"
       id="path4778-3-1-8"
       inkscape:connector-curvature="0" />
  </g>
  <g
     inkscape:groupmode="layer"
     id="layer2"
     inkscape:label="Layer 2"
     style="display:inline;filter:url(#filter4758)"
     transform="translate(-100.49336,-62.306628)" />
</svg>
